<?xml version="1.0" encoding="UTF-8" standalone="no"?> <svg xmlns="http://www.w3.org/2000/svg" version="1.0" width="1397.000000pt" height="522.000000pt" viewBox="0 0 1397.000000 522.000000" preserveAspectRatio="xMidYMid meet"><g transform="translate(0.000000,522.000000) scale(0.100000,-0.100000)" fill="#253f8d" stroke="none"><path d="M3830 5203 c-224 -33 -364 -74 -512 -148 -276 -139 -457 -354 -533 -635 -25 -97 -32 -325 -11 -414 59 -248 247 -406 606 -507 57 -16 190 -47 295 -70 453 -96 583 -145 689 -259 66 -72 86 -126 86 -234 -1 -301 -217 -491 -611 -537 -170 -20 -431 -2 -589 41 l-42 11 6 82 c4 45 9 108 12 140 l6 57 -270 0 -271 0 -5 -52 c-4 -29 -13 -150 -21 -268 -8 -118 -18 -238 -21 -267 l-5 -51 103 -40 c281 -110 575 -162 910 -162 476 0 834 121 1092 369 127 124 207 251 259 416 39 123 50 226 44 398 -6 175 -20 243 -79 367 -34 71 -55 99 -132 175 -173 171 -349 236 -871 320 -387 63 -499 98 -587 186 -56 56 -84 133 -73 202 8 56 56 152 100 204 45 53 166 134 242 163 183 69 453 63 637 -14 l38 -16 -6 -87 c-4 -49 -9 -109 -12 -135 l-6 -48 271 0 270 0 5 33 c3 17 12 136 21 262 8 127 18 251 21 277 l6 48 -77 35 c-256 116 -494 166 -790 163 -93 0 -181 -2 -195 -5z"></path><path d="M5626 5168 c-3 -24 -10 -115 -16 -203 -6 -88 -13 -179 -16 -202 l-5 -43 170 0 170 0 -5 -47 c-8 -76 -164 -2228 -164 -2262 l0 -31 -170 0 c-155 0 -170 -2 -170 -17 0 -10 -7 -99 -15 -198 -8 -99 -15 -201 -15 -227 l0 -48 455 0 c250 0 455 3 455 8 24 358 97 1283 102 1285 4 1 142 -178 306 -398 l299 -400 -84 -3 c-83 -3 -83 -3 -83 -30 0 -15 -7 -110 -15 -212 -8 -102 -15 -200 -15 -217 l0 -33 605 0 605 0 4 23 c3 12 10 99 16 192 6 94 13 194 16 222 l6 53 -183 2 -183 3 -359 474 -359 473 28 28 c16 15 181 167 366 339 l337 311 200 0 200 0 5 43 c3 23 10 114 16 202 6 88 13 179 16 203 l5 42 -594 0 -593 0 -13 -177 c-6 -98 -14 -208 -18 -245 l-6 -67 58 -3 58 -3 -308 -290 c-169 -159 -312 -291 -316 -293 -5 -2 -6 16 -4 40 7 56 125 1683 125 1720 l0 28 -454 0 -455 0 -5 -42z"></path><path d="M9135 5198 c-2 -7 -8 -92 -15 -188 -6 -96 -13 -201 -17 -232 l-6 -58 291 0 290 0 6 48 c3 26 10 124 16 217 6 94 13 182 15 198 l5 27 -291 0 c-223 0 -291 -3 -294 -12z"></path><path d="M10670 5178 c0 -18 -7 -114 -15 -213 -8 -99 -15 -195 -15 -212 l0 -33 165 0 c150 0 165 -2 165 -17 0 -27 -158 -2189 -165 -2260 l-7 -63 -166 -2 -167 -3 -11 -160 c-7 -88 -15 -197 -19 -242 l-6 -83 625 0 c589 0 626 1 627 18 0 9 8 119 18 245 l17 227 -168 0 -168 0 5 53 c3 28 48 637 100 1352 52 715 97 1328 100 1363 l7 62 -461 0 -461 0 0 -32z"></path><path d="M12401 5038 c-7 -95 -15 -206 -18 -245 l-6 -73 167 0 c165 0 166 0 166 -22 0 -33 -159 -2204 -166 -2265 l-5 -53 -165 0 c-162 0 -164 0 -168 -22 -3 -13 -10 -102 -16 -198 -6 -96 -14 -196 -17 -222 l-6 -48 626 0 625 0 6 53 c3 28 10 124 16 212 6 88 12 175 15 193 l4 32 -169 0 -169 0 5 48 c3 26 47 632 99 1347 52 715 97 1330 101 1368 l6 67 -459 0 -460 0 -12 -172z"></path><path d="M1190 4495 c-8 -2 -49 -9 -90 -15 -169 -27 -398 -123 -538 -225 -321 -234 -513 -593 -553 -1033 -19 -209 12 -423 87 -610 148 -366 449 -609 867 -699 118 -26 447 -25 567 0 129 28 287 83 402 141 l103 52 31 360 c18 197 30 360 29 362 -1 1 -49 -36 -106 -84 -123 -103 -183 -143 -304 -200 -318 -151 -671 -110 -897 104 -98 93 -172 233 -191 365 l-6 37 864 0 c832 0 864 1 870 19 34 108 52 355 36 502 -29 262 -119 474 -270 632 -132 138 -262 215 -450 264 -81 21 -123 26 -266 29 -93 1 -177 1 -185 -1z m333 -554 c74 -29 145 -86 186 -150 36 -55 71 -156 71 -202 l0 -29 -556 0 -555 0 22 39 c99 176 298 314 520 361 77 16 246 6 312 -19z"></path><path d="M8800 4483 c0 -10 -7 -99 -15 -198 -8 -99 -15 -201 -15 -227 l0 -48 166 0 166 0 -6 -62 c-4 -35 -29 -373 -56 -753 -27 -379 -52 -718 -56 -753 l-6 -62 -167 0 -167 0 -13 -187 c-7 -104 -15 -214 -18 -245 l-6 -58 627 0 c589 0 626 1 627 18 0 9 8 119 17 245 l17 227 -168 0 -168 0 6 58 c3 31 37 489 75 1017 38 528 71 979 73 1003 l5 42 -459 0 c-430 0 -459 -1 -459 -17z"></path><path d="M13450 1290 c0 -17 7 -20 40 -20 l40 0 0 -110 c0 -103 1 -110 20 -110 19 0 20 7 20 110 l0 110 40 0 c33 0 40 3 40 20 0 19 -7 20 -100 20 -93 0 -100 -1 -100 -20z"></path><path d="M13690 1180 c0 -123 1 -130 20 -130 18 0 20 7 20 83 0 46 3 87 7 91 5 4 17 -32 28 -81 19 -81 22 -88 45 -88 23 0 26 6 44 88 10 48 23 87 28 87 4 0 8 -40 8 -90 0 -83 1 -90 20 -90 19 0 20 7 20 130 l0 130 -35 0 c-33 0 -35 -2 -49 -52 -8 -29 -18 -65 -22 -80 -3 -16 -10 -28 -14 -28 -4 0 -11 12 -14 28 -4 15 -14 51 -22 80 -14 50 -16 52 -49 52 l-35 0 0 -130z"></path><path d="M1396 1113 c-7 -25 -176 -814 -176 -824 0 -5 20 -9 45 -9 25 0 45 2 45 4 0 4 167 789 175 824 5 20 2 22 -39 22 -34 0 -46 -4 -50 -17z"></path><path d="M10015 1108 c-9 -39 -175 -818 -175 -823 0 -3 20 -5 45 -5 38 0 45 3 50 23 9 37 175 820 175 824 0 2 -20 3 -45 3 -38 0 -45 -3 -50 -22z"></path><path d="M11374 1116 c-46 -21 -79 -71 -106 -160 l-24 -79 -54 -16 c-35 -11 -56 -23 -58 -34 -3 -14 5 -17 47 -17 35 0 51 -4 51 -13 0 -34 -131 -630 -144 -655 -23 -44 -41 -54 -91 -50 l-45 3 0 -36 c0 -42 11 -49 71 -49 70 0 134 50 159 125 6 20 42 178 79 353 l67 317 67 3 c44 2 67 7 67 15 0 7 3 22 6 35 6 21 4 22 -61 22 -58 0 -66 2 -61 18 3 9 10 36 16 59 6 24 21 55 34 70 21 24 32 28 73 27 26 0 54 -2 62 -5 15 -4 40 56 28 68 -14 14 -152 13 -183 -1z"></path><path d="M116 1049 c-12 -61 -15 -59 99 -59 85 0 105 -3 105 -14 0 -8 -31 -163 -70 -345 -38 -182 -70 -335 -70 -341 0 -5 20 -10 45 -10 38 0 45 3 50 22 3 13 32 151 65 308 33 157 65 306 71 333 l11 47 108 0 c60 0 111 3 113 8 2 4 7 24 11 45 l7 37 -269 0 -269 0 -7 -31z"></path><path d="M3673 1068 c-6 -7 -104 -184 -218 -393 -114 -209 -209 -383 -212 -387 -2 -5 20 -8 49 -8 l53 0 64 125 65 125 137 0 137 0 13 -122 14 -123 49 -3 48 -3 -6 33 c-5 31 -96 749 -96 762 0 12 -88 6 -97 -6z m51 -345 l12 -103 -104 0 c-63 0 -102 4 -100 10 2 5 39 81 83 167 l80 158 8 -65 c5 -36 14 -111 21 -167z"></path><path d="M9312 694 c-45 -214 -82 -395 -82 -401 0 -9 15 -13 44 -13 l43 0 33 154 33 153 96 6 c140 8 195 28 257 91 36 37 54 65 62 98 16 61 14 124 -2 171 -33 91 -90 118 -271 125 l-131 5 -82 -389z m346 282 c39 -20 55 -63 50 -134 -8 -110 -74 -160 -225 -170 -80 -5 -85 -4 -80 14 7 24 67 303 67 311 0 11 160 -6 188 -21z"></path><path d="M2850 958 c-16 -29 -30 -56 -30 -60 0 -3 -25 -16 -55 -29 -38 -16 -55 -28 -55 -41 0 -14 8 -18 38 -18 21 0 41 -2 44 -5 3 -3 -12 -88 -33 -188 -21 -100 -39 -199 -39 -220 0 -81 50 -127 137 -127 79 0 93 7 93 47 l0 34 -49 -7 c-41 -5 -52 -3 -70 15 -11 11 -21 30 -21 41 0 11 18 106 40 211 22 106 40 193 40 195 0 2 33 4 74 4 77 0 86 5 86 51 0 17 -8 19 -71 19 l-71 0 7 38 c4 20 9 49 12 65 5 24 3 27 -21 27 -20 0 -32 -10 -56 -52z"></path><path d="M8721 949 c-28 -51 -41 -64 -79 -80 -76 -33 -83 -59 -17 -59 29 0 45 -4 45 -13 0 -6 -16 -86 -35 -177 -20 -91 -36 -186 -37 -211 -3 -94 40 -139 130 -139 76 0 102 13 102 51 l0 31 -51 -7 c-40 -6 -54 -4 -70 11 -27 25 -24 71 20 274 l38 175 76 3 c52 2 77 7 77 15 0 7 3 22 6 35 6 21 4 22 -71 22 -68 0 -76 2 -71 18 3 9 8 31 11 47 4 17 9 38 12 48 3 13 -2 17 -24 17 -24 0 -33 -9 -62 -61z"></path><path d="M10910 958 c-16 -29 -30 -56 -30 -60 0 -3 -25 -16 -55 -29 -38 -16 -55 -28 -55 -41 0 -14 8 -18 39 -18 22 0 42 -3 44 -7 2 -5 -13 -87 -34 -183 -40 -182 -46 -241 -29 -284 14 -39 66 -66 125 -66 81 0 95 7 95 47 l0 34 -49 -7 c-41 -5 -52 -3 -70 15 -11 11 -21 32 -21 45 0 13 18 107 40 210 22 102 40 188 40 191 0 3 33 5 74 5 77 0 86 5 86 51 0 17 -8 19 -71 19 l-71 0 7 38 c4 20 9 49 12 65 5 24 3 27 -21 27 -20 0 -32 -10 -56 -52z"></path><path d="M855 881 c-109 -27 -199 -139 -231 -290 -27 -130 -15 -219 40 -279 30 -32 40 -36 94 -40 52 -4 67 0 112 24 28 15 65 44 82 63 l31 35 -7 -57 -7 -57 35 0 c24 0 36 5 40 18 3 9 31 136 61 282 31 146 59 273 61 283 5 16 1 18 -32 15 -33 -3 -39 -7 -51 -42 -7 -22 -15 -41 -17 -44 -3 -2 -21 15 -41 37 -48 53 -99 69 -170 52z m114 -86 c25 -13 37 -31 55 -87 9 -30 -14 -141 -43 -203 -70 -151 -190 -208 -255 -122 -16 22 -20 41 -19 100 5 215 140 376 262 312z"></path><path d="M1765 881 c-74 -19 -155 -89 -194 -168 -46 -93 -63 -223 -41 -305 14 -48 53 -94 101 -118 49 -26 165 -26 229 -2 42 16 45 20 48 59 l3 42 -48 -21 c-61 -27 -149 -30 -186 -5 -41 27 -59 62 -61 119 l-1 53 80 7 c183 15 285 87 285 201 0 58 -21 102 -59 121 -35 19 -116 27 -156 17z m88 -82 c30 -16 37 -28 37 -65 0 -61 -65 -102 -179 -113 -42 -5 -78 -7 -79 -5 -7 5 39 98 63 129 41 55 111 78 158 54z"></path><path d="M2399 881 c-45 -15 -73 -32 -118 -75 l-43 -41 7 58 6 57 -35 0 c-19 0 -37 -3 -39 -7 -5 -9 -127 -569 -127 -584 0 -5 20 -9 44 -9 40 0 45 3 50 27 74 359 106 432 209 482 87 42 147 17 147 -59 0 -31 -51 -296 -84 -432 -3 -15 3 -18 43 -18 l47 0 43 206 c47 224 52 284 27 332 -26 51 -115 83 -177 63z"></path><path d="M4134 880 c-88 -20 -134 -77 -134 -164 0 -50 4 -61 33 -92 18 -19 64 -57 102 -82 85 -57 104 -86 86 -130 -29 -69 -115 -88 -228 -50 l-73 24 0 -42 0 -43 52 -16 c59 -17 166 -20 220 -5 75 21 128 89 128 165 0 67 -39 114 -148 179 -67 41 -82 59 -82 104 0 70 96 101 202 65 l58 -20 11 35 c7 20 8 37 2 43 -11 11 -138 39 -173 38 -14 -1 -39 -4 -56 -9z"></path><path d="M4597 876 c-86 -24 -135 -95 -124 -178 8 -58 30 -84 122 -143 46 -30 89 -63 95 -74 46 -87 -56 -160 -184 -131 -26 6 -61 17 -77 26 l-29 15 0 -45 0 -44 51 -17 c70 -23 199 -18 254 11 79 41 111 130 76 209 -19 44 -52 72 -144 127 -59 35 -81 67 -72 108 14 65 100 87 203 51 l53 -18 14 35 c8 19 15 36 15 37 0 2 -21 10 -47 19 -70 23 -151 28 -206 12z"></path><path d="M5149 874 c-105 -32 -196 -161 -219 -311 -21 -131 15 -228 100 -271 56 -28 161 -30 235 -3 48 17 50 19 53 58 l3 41 -53 -20 c-69 -27 -155 -29 -192 -5 -34 23 -56 73 -56 130 l0 44 83 6 c151 11 253 69 277 159 23 83 -16 155 -96 177 -50 14 -78 13 -135 -5z m126 -89 c30 -29 31 -50 6 -91 -25 -41 -78 -64 -167 -73 -85 -8 -87 -6 -50 67 56 109 154 154 211 97z"></path><path d="M5635 881 c-77 -19 -117 -56 -136 -123 -21 -80 12 -133 139 -218 81 -55 99 -84 78 -133 -10 -25 -25 -38 -55 -50 -55 -23 -93 -21 -173 7 l-68 23 0 -43 0 -43 52 -16 c59 -17 166 -20 220 -5 75 21 128 89 128 165 0 67 -39 114 -148 179 -68 41 -82 59 -82 105 0 36 30 67 72 76 35 8 111 -2 154 -20 30 -12 31 -12 43 22 8 21 9 39 4 44 -11 11 -138 39 -173 38 -14 -1 -38 -4 -55 -8z"></path><path d="M6095 876 c-87 -25 -137 -103 -121 -190 9 -50 39 -81 132 -141 61 -39 85 -62 90 -81 9 -36 -5 -73 -39 -98 -39 -29 -143 -28 -209 2 l-48 21 0 -43 c0 -37 4 -45 28 -56 15 -7 68 -15 119 -18 82 -4 97 -2 147 21 71 33 96 71 96 147 0 70 -24 111 -87 150 -128 78 -152 104 -139 155 9 34 61 65 111 65 22 -1 64 -9 93 -19 l53 -18 14 35 c8 19 15 36 15 37 0 2 -21 10 -47 19 -71 23 -151 28 -208 12z"></path><path d="M6736 878 c-24 -7 -58 -29 -89 -59 -28 -27 -51 -49 -51 -49 -1 0 1 25 2 55 l4 55 -36 0 c-29 0 -37 -4 -41 -22 -3 -13 -30 -140 -60 -283 -30 -143 -57 -268 -59 -278 -4 -16 2 -18 42 -15 l47 3 32 149 c35 168 54 223 95 283 81 120 218 125 218 9 0 -19 -54 -285 -85 -423 -5 -21 -2 -23 39 -23 52 0 45 -16 86 180 17 80 41 168 54 195 43 94 115 155 183 155 37 0 73 -37 73 -74 0 -15 -20 -122 -45 -238 -25 -116 -45 -213 -45 -215 0 -2 20 -3 44 -3 53 0 43 -23 96 224 43 204 48 258 25 312 -19 47 -88 79 -150 70 -51 -8 -125 -53 -156 -95 -26 -35 -39 -39 -39 -13 0 31 -40 83 -75 98 -39 16 -54 16 -109 2z"></path><path d="M7619 874 c-125 -38 -222 -203 -222 -380 0 -91 28 -154 86 -192 55 -36 166 -43 247 -15 54 19 55 20 58 60 l3 41 -53 -20 c-69 -27 -155 -29 -192 -5 -34 23 -56 73 -56 130 l0 44 83 6 c149 10 251 67 277 154 26 84 -14 162 -94 182 -56 14 -79 13 -137 -5z m128 -90 c20 -20 24 -31 19 -57 -13 -62 -69 -95 -182 -106 -85 -8 -87 -6 -50 67 56 109 155 154 213 96z"></path><path d="M8268 880 c-41 -12 -94 -47 -122 -81 -14 -16 -26 -29 -29 -29 -2 0 -2 25 1 55 l4 55 -36 0 c-29 0 -37 -4 -41 -22 -3 -13 -30 -140 -60 -283 -31 -143 -58 -268 -61 -278 -5 -16 0 -18 43 -15 l48 3 32 154 c18 85 44 178 57 206 62 136 187 205 253 139 31 -31 30 -40 -27 -305 -22 -101 -40 -187 -40 -191 0 -5 20 -8 45 -8 38 0 45 3 50 23 3 12 23 108 46 212 48 224 49 278 4 325 -42 44 -105 59 -167 40z"></path><path d="M10385 881 c-114 -28 -208 -153 -235 -314 -32 -184 27 -297 154 -297 60 0 137 39 181 92 l28 33 -7 -58 -8 -58 38 3 37 3 58 275 c32 151 61 285 64 298 5 22 3 23 -31 20 -33 -3 -39 -7 -51 -42 -7 -22 -15 -41 -17 -44 -3 -2 -21 15 -41 37 -48 53 -99 69 -170 52z m114 -86 c25 -13 37 -31 55 -87 9 -30 -14 -141 -43 -203 -70 -151 -190 -208 -255 -122 -16 22 -20 41 -19 100 5 215 140 376 262 312z"></path><path d="M12403 879 c-18 -5 -55 -33 -84 -62 l-51 -52 7 58 7 58 -38 -3 -39 -3 -57 -265 c-31 -146 -59 -280 -63 -297 l-6 -33 45 0 45 0 16 78 c59 275 88 349 159 407 30 24 50 31 99 35 59 5 61 6 69 39 5 18 7 35 4 38 -10 10 -83 12 -113 2z"></path><path d="M12846 876 c-21 -8 -61 -36 -89 -63 l-49 -48 7 58 7 58 -39 -3 -38 -3 -62 -285 c-34 -157 -62 -291 -62 -297 -1 -9 14 -13 44 -13 25 0 45 2 45 5 0 41 78 342 100 385 53 105 148 163 209 129 41 -23 39 -87 -8 -307 -23 -103 -41 -193 -41 -200 0 -8 15 -12 43 -12 l44 0 28 133 c37 176 58 243 96 300 53 81 144 118 197 81 33 -23 29 -86 -22 -316 l-43 -198 47 0 47 0 11 53 c6 28 27 129 47 222 25 118 34 183 30 212 -13 89 -90 136 -187 113 -37 -9 -64 -26 -107 -66 l-58 -54 -18 46 c-9 24 -27 51 -38 59 -34 22 -97 27 -141 11z"></path><path d="M11680 867 c-55 -17 -143 -111 -169 -180 -73 -197 -28 -369 107 -407 203 -56 374 113 375 370 0 110 -40 179 -125 215 -42 17 -136 18 -188 2z m167 -82 c40 -27 56 -79 50 -165 -12 -170 -86 -272 -197 -272 -86 0 -130 53 -130 159 0 105 33 193 93 251 55 53 127 64 184 27z"></path></g></svg> 